<?xml version="1.0" encoding="utf-8"?>
<!-- Generator: Adobe Illustrator 23.0.2, SVG Export Plug-In . SVG Version: 6.00 Build 0)  -->
<svg version="1.1" id="katman_1" xmlns="http://www.w3.org/2000/svg" xmlns:xlink="http://www.w3.org/1999/xlink" x="0px" y="0px"
	 viewBox="0 0 172 182.3" style="enable-background:new 0 0 172 182.3;" xml:space="preserve">
<style type="text/css">
	.st0{fill:#FFFFFF;}
	.st1{enable-background:new    ;}
</style>
<g transform="translate(-102 -239.176)">
	<path class="st0" d="M136.5,299.7l-3.8-3.8c-3.6-3.6-3.6-9.5,0-13.1l0.4-0.4c2.7-2.6,4.1-6.2,4.1-10c0-3.7-1.5-7.3-4.1-10l-3.8-3.8
		l-3.4,3.4l3.8,3.8c1.7,1.7,2.7,4.1,2.7,6.5c0,2.5-1,4.8-2.7,6.6l-0.4,0.4c-5.5,5.5-5.5,14.4,0,19.9l0,0l3.8,3.8L136.5,299.7z"/>
	<path class="st0" d="M149,263.4c3.6,3.6,3.6,9.5,0,13.1l-3.8,3.8l3.4,3.4l3.8-3.8c5.5-5.5,5.5-14.4,0-19.9l0,0l-0.4-0.4
		c-3.6-3.6-3.6-9.5,0-13.1l3.8-3.8l-3.4-3.4l-3.8,3.8c-5.5,5.5-5.5,14.4,0,19.9l0,0L149,263.4z"/>
	<path class="st0" d="M246.8,279.3l-0.4-0.4c-3.6-3.6-3.6-9.5,0-13.1l3.8-3.8l-3.4-3.4l-3.8,3.8c-5.5,5.5-5.5,14.4,0,19.9l0,0
		l0.4,0.4c3.6,3.6,3.6,9.5,0,13.1l-3.8,3.8l3.4,3.4l3.8-3.8C252.4,293.8,252.4,284.8,246.8,279.3L246.8,279.3L246.8,279.3z"/>
	<path class="st0" d="M223.6,260c-5.5,5.5-5.5,14.4,0,19.9l0,0l3.8,3.8l3.4-3.4l-3.8-3.8c-3.6-3.6-3.6-9.5,0-13.1l0.4-0.4
		c5.5-5.5,5.5-14.4,0-19.9l0,0l-3.8-3.8l-3.4,3.4l3.8,3.8c3.6,3.6,3.6,9.5,0,13.1L223.6,260z"/>
	<path class="st0" d="M224,349.8h14.9v-7.3c0-28.1-22.8-50.8-50.8-50.8s-50.8,22.8-50.8,50.8v7.3h5c1-6.7,5.8-12.2,12.3-13.9
		l1.1-7.3c0.9-5.9,6-10.3,12-10.3h1.1c-1.6-2.1-2.5-4.6-2.5-7.3v-7.3h7.3c4.3,0,8.3,2.3,10.4,6.1c1.2-0.8,2.6-1.3,4.1-1.3h14.5
		c4,0,7.2,3.2,7.3,7.1c0,0.9-0.2,1.8-0.5,2.6c5.6,0.4,10.2,4.6,11,10.2L224,349.8z M213.2,310c-1.5-1.1-3-2.1-4.6-3.1l2.4-4.2
		c1.8,1,3.5,2.2,5.1,3.4L213.2,310z M216.5,312.8l3.3-3.5c9.1,8.6,14.2,20.7,14.2,33.2h-4.8C229.2,331.3,224.6,320.5,216.5,312.8
		L216.5,312.8z"/>
	<path class="st0" d="M205,349.8c1.3,0,2.4-1.1,2.4-2.4v-9.7c0-4.7,3.3-8.6,7.9-9.5c-1-3-3.7-5-6.9-5h-40.7c-3.6,0-6.6,2.6-7.2,6.2
		l-0.9,6c2.8,0.1,5.5,0.9,7.9,2.3c6.7-3.9,15.2-2.8,20.5,2.8v-5.1c0-4,3.2-7.3,7.2-7.3s7.3,3.2,7.3,7.2c0,0.1,0,0.1,0,0.2v4.8h-4.8
		v-4.8c0-1.3-1.1-2.4-2.4-2.4c-1.3,0-2.4,1.1-2.4,2.4l0,0V350h5.3c-0.3-0.8-0.4-1.6-0.4-2.4v-2.4h4.8v2.4
		C202.6,348.7,203.7,349.8,205,349.8L205,349.8z"/>
	<path class="st0" d="M195.3,287.4V282h-14.5v5.3C185.6,286.7,190.5,286.7,195.3,287.4z"/>
	<path class="st0" d="M196.4,262.7h-16.7l-0.9,4.8h18.4L196.4,262.7z"/>
	<path class="st0" d="M171.1,277.2H205c1.3,0,2.4-1.1,2.4-2.4s-1.1-2.4-2.4-2.4l0,0h-33.9c-1.3,0-2.4,1.1-2.4,2.4
		C168.7,276.1,169.8,277.2,171.1,277.2L171.1,277.2z"/>
	<path class="st0" d="M171.6,340.9c2.2,2.5,3.7,5.6,4.1,8.8h12c-1.3-6.5-7.6-10.7-14.1-9.5C173,340.5,172.3,340.7,171.6,340.9
		L171.6,340.9z"/>
	<path class="st0" d="M151.8,374h72.6v4.8h-72.6L151.8,374z"/>
	<path class="st0" d="M216.2,332.9c-2.3,0.4-3.9,2.4-4,4.8v9.7c0,0.8-0.2,1.6-0.4,2.4h7.3L216.2,332.9z"/>
	<path class="st0" d="M149.3,369.1h77.4c8.4,0,15.6-6.2,16.8-14.5h-111C133.8,362.9,140.9,369.1,149.3,369.1z"/>
	<path class="st0" d="M202.6,318.3c1.3,0,2.4-1.1,2.4-2.4s-1.1-2.4-2.4-2.4h-14.5c-1.3,0-2.4,1.1-2.4,2.4s1.1,2.4,2.4,2.4l0,0H202.6
		z"/>
	<path class="st0" d="M147.2,349.8h23.7c-1.3-6.5-7.7-10.8-14.3-9.4C151.8,341.3,148.1,345,147.2,349.8z"/>
	<path class="st0" d="M180.8,318.3v-2.4c0-4-3.3-7.3-7.3-7.3h-2.4v2.4c0,4,3.3,7.3,7.3,7.3H180.8z"/>
	<g class="st1">
		<path class="st0" d="M104.9,389.5h12.9v3.4h-8.7v5.4h6.7v3.3h-6.7v8.8h-4.2C104.9,410.4,104.9,389.5,104.9,389.5z"/>
		<path class="st0" d="M128.2,410.7c-4.8,0-8.4-3.4-8.4-8.6s3.8-8.6,8.5-8.6c4.7,0,8.5,3.3,8.5,8.6
			C136.8,407.4,133,410.7,128.2,410.7z M128.2,407.1c2.2,0,4.3-1.6,4.3-4.9s-2.1-4.9-4.3-4.9s-4.2,1.6-4.2,4.9
			C124,405.4,125.9,407.1,128.2,407.1z"/>
		<path class="st0" d="M147.3,410.7c-4.8,0-8.4-3.4-8.4-8.6s3.8-8.6,8.5-8.6s8.5,3.3,8.5,8.6C156,407.4,152.1,410.7,147.3,410.7z
			 M147.3,407.1c2.2,0,4.3-1.6,4.3-4.9s-2.1-4.9-4.3-4.9s-4.2,1.6-4.2,4.9C143.1,405.4,145.1,407.1,147.3,407.1z"/>
		<path class="st0" d="M165.6,393.6c2.2,0,4.3,1,5.4,2.6v-7.9h4.3v22.2H171V408c-1,1.5-2.9,2.7-5.5,2.7c-4.2,0-7.6-3.4-7.6-8.6
			S161.4,393.6,165.6,393.6z M166.7,397.2c-2.2,0-4.4,1.7-4.4,4.8s2.1,4.9,4.4,4.9c2.3,0,4.4-1.7,4.4-4.9
			C171.1,399,169,397.2,166.7,397.2z"/>
		<path class="st0" d="M179.4,389.5h4.8l6.7,15.6l6.7-15.6h4.7v20.9H198v-13.6l-5.6,13.6h-3.2l-5.6-13.6v13.6h-4.2V389.5z"/>
		<path class="st0" d="M212.9,393.6c2.7,0,4.5,1.3,5.5,2.6v-2.4h4.2v16.6h-4.2V408c-1,1.4-2.9,2.7-5.5,2.7c-4.2,0-7.6-3.4-7.6-8.6
			S208.7,393.6,212.9,393.6z M214,397.2c-2.2,0-4.4,1.7-4.4,4.8s2.1,4.9,4.4,4.9c2.3,0,4.4-1.7,4.4-4.9
			C218.4,399,216.3,397.2,214,397.2z"/>
		<path class="st0" d="M238.4,401.3c0-2.7-1.5-4.1-3.7-4.1c-2.3,0-3.8,1.4-3.8,4.1v9.2h-4.2v-16.6h4.2v2.1c1.1-1.4,2.9-2.3,5-2.3
			c3.9,0,6.6,2.5,6.6,7.1v9.8h-4.2L238.4,401.3L238.4,401.3z"/>
		<path class="st0" d="M246.1,389.4c0-1.4,1.1-2.5,2.6-2.5s2.6,1.1,2.6,2.5s-1.1,2.5-2.6,2.5C247.2,391.8,246.1,390.8,246.1,389.4z
			 M246.6,393.8h4.2v16.6h-4.2V393.8z"/>
		<path class="st0" d="M261.4,393.6c2.7,0,4.5,1.3,5.5,2.6v-2.4h4.2v16.6h-4.2V408c-1,1.4-2.9,2.7-5.5,2.7c-4.2,0-7.6-3.4-7.6-8.6
			S257.2,393.6,261.4,393.6z M262.5,397.2c-2.2,0-4.4,1.7-4.4,4.8s2.1,4.9,4.4,4.9s4.4-1.7,4.4-4.9
			C266.9,399,264.8,397.2,262.5,397.2z"/>
	</g>
</g>
</svg>
